<?xml version="1.0" encoding="UTF-8"?><svg xmlns="http://www.w3.org/2000/svg" viewBox="0 0 330.82 330.82"><defs><style>.h{fill:#fff;}.i{fill:#bfbfbf;}</style></defs><g id="a"/><g id="b"><g id="c"><circle id="d" class="i" cx="165.41" cy="165.41" r="165.41"/><g id="e" transform="translate(-37 -78.2)"><path id="f" class="h" d="M225,82.49h0c7.99,0,14.47,6.88,14.47,15.37V232.2c0,8.49-6.48,15.37-14.47,15.37h0c-7.99,0-14.47-6.88-14.47-15.37V97.86c0-8.49,6.48-15.37,14.47-15.37Z"/><path id="g" class="h" d="M110.2,82.93h0c7.99,0,14.47,6.88,14.47,15.37V232.63c0,8.49-6.48,15.37-14.47,15.37h0c-7.99,0-14.47-6.88-14.47-15.37V98.29c0-8.49,6.48-15.37,14.47-15.37Z"/></g></g></g></svg>